<svg xmlns="http://www.w3.org/2000/svg" version="1.1" xmlns:xlink="http://www.w3.org/1999/xlink" width="512" height="512" x="0" y="0" viewBox="0 0 256 256" style="enable-background:new 0 0 512 512" xml:space="preserve" class=""><g><path d="M60.681 210.857a10.3 10.3 0 0 1-6.573-2.345c-35.892-29.715-21.118-68.433-13.101-83.699 1.917-3.648 5.824-5.938 9.96-5.792l22.524.703c3.445.118 6.771-.886 9.617-2.875 29.878-20.873 27.468-46.508 23.056-63.975-1.214-4.808-4.204-20.764 8.318-24.215 9.43-2.601 23.982 4.846 27.912 17.99 3.748 12.533 5.694 32.215-1.152 46.435a2.5 2.5 0 1 1-4.505-2.169c6.226-12.932 4.358-31.156.867-42.833-3.066-10.254-14.548-16.602-21.793-14.602-5.579 1.538-7.328 8.161-4.799 18.17 11.124 44.034-16.096 63.049-25.04 69.298-3.737 2.611-8.107 3.93-12.637 3.774l-22.524-.703c-2.224-.057-4.345 1.155-5.377 3.12-4.127 7.858-9.103 20.098-9.37 33.779-.333 17.086 6.811 31.804 21.232 43.744 1.446 1.198 3.476 1.526 5.296.854 7.289-2.684 21.43-8.148 21.572-8.203a2.5 2.5 0 0 1 1.802 4.664c-.143.055-14.32 5.533-21.646 8.23a10.48 10.48 0 0 1-3.639.65z" fill="#00668c" opacity="1" data-original="#000000" class=""></path><path d="M206.935 136.151c-.431 0-.867-.02-1.308-.057a2.5 2.5 0 1 1 .427-4.982c6.261.538 8.679-4.418 9.428-6.573 1.821-5.241.615-12.702-4.555-16.115l-.847-.562c-4.77-3.172-17.439-11.598-29.795-15.286-5.372-1.604-18.87-1.882-52.663 5.892-.819.188-1.44.332-1.832.417a2.5 2.5 0 0 1-1.062-4.886c.379-.083.98-.221 1.773-.403 27.983-6.438 46.561-8.393 55.214-5.811 13.072 3.902 26.194 12.629 31.134 15.914l.833.552c7.473 4.933 8.939 14.979 6.524 21.929-2.172 6.245-7.187 9.97-13.271 9.971z" fill="#00668c" opacity="1" data-original="#000000" class=""></path><path d="M204.424 167.409a2.5 2.5 0 0 1-.537-4.942c7.76-1.715 9.464-6.854 9.527-10.861.111-7.057-4.852-14.771-10.412-16.186-6.214-1.58-19.428-7.621-21.751-9.945a2.498 2.498 0 0 1 0-3.535 2.498 2.498 0 0 1 3.535 0c1.386 1.312 13.495 7.121 19.449 8.635 7.834 1.992 14.328 11.659 14.179 21.109-.127 8.095-5.029 13.805-13.448 15.666a2.52 2.52 0 0 1-.542.059z" fill="#00668c" opacity="1" data-original="#000000" class=""></path><path d="M204.64 198.393a2.5 2.5 0 0 1-.837-4.856c5.604-1.991 6.679-6.459 6.594-9.856-.17-6.804-5.089-14.665-10.124-16.176-6.14-1.842-20.201-8.598-22.189-10.089a2.5 2.5 0 0 1 2.999-4.001c1.273.931 14.583 7.487 20.627 9.301 7.066 2.12 13.461 11.858 13.685 20.84.175 7.036-3.439 12.391-9.918 14.692a2.504 2.504 0 0 1-.837.145z" fill="#00668c" opacity="1" data-original="#000000" class=""></path><path d="M224.172 234.22c-1.86 0-3.826-.278-5.87-.843-17.325-4.788-63.347-17.505-73.502-18.521-.874-.087-1.944-.182-3.182-.292-13.553-1.202-45.29-4.019-61.371-17.229a2.5 2.5 0 0 1 3.174-3.864c14.888 12.229 45.547 14.95 58.639 16.111 1.259.112 2.348.209 3.237.298 9.377.938 44.653 10.473 74.337 18.675 4.951 1.369 8.992.63 11.686-2.135 2.911-2.989 3.938-8.04 2.558-12.568-.679-2.225-2.536-6.108-7.344-7.115-2.955-.619-14.083-3.909-25.495-7.86-14.505-5.022-23.269-8.918-26.046-11.58a2.5 2.5 0 1 1 3.46-3.609c.796.763 4.897 3.773 24.222 10.465 11.061 3.829 22.126 7.113 24.885 7.69 5.352 1.121 9.398 4.967 11.101 10.552 1.897 6.22.387 13.258-3.758 17.515-2.774 2.848-6.473 4.31-10.731 4.31z" fill="#00668c" opacity="1" data-original="#000000" class=""></path></g></svg>