<svg width="137" height="142" viewBox="0 0 137 142" fill="none" xmlns="http://www.w3.org/2000/svg">
<g clip-path="url(#clip0_199_10)">
<mask id="mask0_199_10" style="mask-type:luminance" maskUnits="userSpaceOnUse" x="0" y="-5" width="137" height="155">
<path d="M137 -5H0V150H137V-5Z" fill="white"/>
</mask>
<g mask="url(#mask0_199_10)">
<path d="M21.1098 6.19922H9.52979V124.819H21.1098V6.19922Z" fill="#5488C4"/>
<path d="M38.2499 71.6396H26.6699V124.83H38.2499V71.6396Z" fill="#5488C4"/>
<path d="M73.5297 6.19922H61.9497V124.819H73.5297V6.19922Z" fill="#5488C4"/>
<path d="M108.72 6.19922H97.1396V124.819H108.72V6.19922Z" fill="#5488C4"/>
<path d="M55.8896 71.7197H44.3096V124.82H55.8896V71.7197Z" fill="#5488C4"/>
<path d="M91.1196 6.19922H79.5396V59.1792H91.1196V6.19922Z" fill="#5488C4"/>
<path d="M125.95 71.8398H114.37V124.82H125.95V71.8398Z" fill="#5488C4"/>
<path d="M125.95 6.19922H114.37V59.1792H125.95V6.19922Z" fill="#5488C4"/>
<path d="M-0.290039 6.1596C9.52996 6.1596 19.35 6.1596 29.17 6.1696C28.42 6.1696 27.66 6.1696 26.91 6.1596V35.0896C26.91 35.0896 34.76 35.4996 41.3 31.4596C48.07 27.2596 55.22 20.0596 55.83 6.1696H49.89H61.83V123.97H73.35C73.35 84.7096 73.35 45.4496 73.35 6.1896C75.24 6.1896 77.13 6.1996 79.03 6.1996C79.05 23.8996 79.06 41.5896 79.08 59.2896C82.91 59.2996 86.74 59.3096 90.58 59.3196C90.6 41.6196 90.61 23.9196 90.63 6.2296C92.74 6.2296 94.84 6.2396 96.95 6.2396C96.93 45.5496 96.92 84.8496 96.9 124.16C100.61 124.18 104.33 124.19 108.04 124.21C108.03 84.8996 108.03 45.5796 108.02 6.2696C109.97 6.2696 111.92 6.2796 113.87 6.2796C113.89 23.9496 113.91 41.6196 113.93 59.2896C117.76 59.2696 121.58 59.2596 125.41 59.2396C125.4 27.6396 125.4 0.229613 125.41 0.229613C125.44 0.229613 125.45 128.23 125.45 128.12C125.44 126.82 125.42 125.51 125.41 124.21C131.17 124.25 134.05 124.27 134.05 124.28C134.05 124.29 127.36 124.27 113.97 124.21C113.96 106.62 113.94 89.0296 113.93 71.4396C117.77 71.4496 121.6 71.4696 125.44 71.4796C125.43 49.7596 125.42 28.0396 125.41 6.3196H137.1L61.82 6.1596V124.22C41.89 124.23 21.96 124.24 2.01996 124.25C4.44996 124.24 6.86996 124.23 9.29996 124.22C9.29996 81.0996 9.29996 37.9696 9.29996 -5.15039C9.29996 -1.38039 9.29996 2.38961 9.29996 6.1596H21.1H20.8L20.97 124.22H26.98C26.96 106.55 26.94 88.8796 26.92 71.2096C28.82 71.1896 30.73 71.1796 32.66 71.1796C34.57 71.1796 36.47 71.1796 38.35 71.1996C38.33 88.8796 38.32 106.55 38.3 124.23H44.17C44.17 107.14 44.17 90.0596 44.17 72.9696C44.17 72.4096 44.17 71.8496 44.17 71.2896C48.04 71.2796 51.92 71.2696 55.79 71.2596C55.74 88.9096 55.69 106.57 55.63 124.36L124.35 124.33L10.07 124.22H9.09996H9.30996C9.31996 125.13 9.31996 126.04 9.32996 126.96" stroke="#5488C4" stroke-miterlimit="10"/>
<path d="M91.8199 114.869V116.919C89.9999 119.269 88.2999 121.029 86.7299 122.219C85.1499 123.409 83.8099 124.009 82.7099 124.009C81.1699 124.009 80.0299 123.199 79.2799 121.589C78.5299 119.979 78.1499 118.209 78.1499 116.299C78.1499 115.569 78.2299 114.869 78.3799 114.199C78.5299 113.529 78.7099 112.989 78.9099 112.549C79.1199 112.119 79.4999 111.439 80.0599 110.519C82.7199 106.369 85.1599 104.299 87.3799 104.299C88.5199 104.299 89.0999 104.739 89.0999 105.619C89.0999 106.219 88.7299 107.159 87.9899 108.429C87.2499 109.709 86.5899 110.619 86.0099 111.159C84.3799 112.739 83.3099 113.829 82.8199 114.449C82.3299 115.069 82.0699 115.769 82.0699 116.559C82.0699 117.239 82.3199 117.799 82.8299 118.249C83.3399 118.699 83.9899 118.929 84.7999 118.929C85.6799 118.929 86.6499 118.609 87.7099 117.959C88.7599 117.329 90.1299 116.289 91.8199 114.869ZM89.9099 102.289C89.4399 102.289 88.9899 102.109 88.5699 101.749C88.1499 101.389 87.9399 100.939 87.9399 100.399C87.9399 99.5691 88.3299 98.6491 89.1199 97.6391C89.9099 96.6291 90.7199 96.1191 91.5699 96.1191C92.1299 96.1191 92.5999 96.2891 92.9799 96.6391C93.3599 96.9891 93.5399 97.4891 93.5399 98.1391C93.5399 98.9491 93.1599 99.8391 92.3899 100.809C91.6199 101.799 90.7899 102.289 89.9099 102.289Z" fill="#305176"/>
</g>
<path d="M13.63 128V141.19H11V128H13.63Z" fill="#5488C4"/>
<path d="M21.26 132.35V141.19H18.63V128H20.85C23.02 130.89 25.18 133.93 27.33 137.11V128H30V141.19H27.72C26.45 139.65 24.29 136.7 21.26 132.35Z" fill="#5488C4"/>
<path d="M38.73 130.19H35V128H45.43V130.19H41.42V141.19H38.73V130.19Z" fill="#5488C4"/>
<path d="M50.4301 128H58.8701V130.19H53.1001V133.29H57.9101V135.48H53.1001V139H59.1301V141.19H50.4301V128Z" fill="#5488C4"/>
<path d="M64.13 141.44V128.27C64.32 128.23 64.86 128.17 65.74 128.1C66.62 128.03 67.3 128 67.76 128C71.05 128 72.69 129.38 72.69 132.13C72.69 133.62 72.1001 134.88 70.9201 135.92C71.4101 137.07 72.24 138.91 73.43 141.44H70.74C70.07 139.95 69.35 138.36 68.58 136.65C68.43 136.68 68.23 136.69 67.97 136.69C67.37 136.69 66.9901 136.63 66.8101 136.52V141.44H64.13ZM66.79 130.33V134.31C67.2 134.43 67.6401 134.5 68.1101 134.5C69.2801 134.5 69.8601 133.71 69.8601 132.12C69.8601 130.83 69.26 130.18 68.05 130.18C67.37 130.19 66.94 130.23 66.79 130.33Z" fill="#5488C4"/>
<path d="M81.0601 128V141.19H78.4301V128H81.0601Z" fill="#5488C4"/>
<path d="M91.91 128C93.89 128 95.42 128.81 96.49 130.42C97.33 131.68 97.75 133.21 97.75 135C97.75 137.06 97.2 138.7 96.1 139.94C95.05 141.11 93.65 141.69 91.9 141.69C89.89 141.69 88.36 140.94 87.32 139.44C86.4801 138.26 86.0601 136.78 86.0601 135C86.0601 132.92 86.6101 131.21 87.71 129.89C88.76 128.63 90.16 128 91.91 128ZM91.91 139.4C92.89 139.4 93.64 139.02 94.17 138.26C94.7 137.5 94.96 136.42 94.96 135C94.96 133.49 94.67 132.3 94.08 131.46C93.54 130.71 92.81 130.34 91.9 130.34C90.92 130.34 90.16 130.75 89.63 131.57C89.09 132.39 88.83 133.54 88.83 135.01C88.84 137.93 89.86 139.4 91.91 139.4Z" fill="#5488C4"/>
<path d="M102.75 141.44V128.27C102.94 128.23 103.48 128.17 104.36 128.1C105.24 128.03 105.91 128 106.38 128C109.67 128 111.31 129.38 111.31 132.13C111.31 133.62 110.72 134.88 109.54 135.92C110.03 137.07 110.86 138.91 112.05 141.44H109.36C108.69 139.95 107.98 138.36 107.2 136.65C107.05 136.68 106.85 136.69 106.59 136.69C105.99 136.69 105.6 136.63 105.43 136.52V141.44H102.75ZM105.41 130.33V134.31C105.82 134.43 106.26 134.5 106.73 134.5C107.9 134.5 108.48 133.71 108.48 132.12C108.48 130.83 107.88 130.18 106.67 130.18C105.98 130.19 105.56 130.23 105.41 130.33Z" fill="#5488C4"/>
<path d="M125.74 129.33C125.5 129.71 125.12 130.27 124.6 131.02C123.51 130.53 122.54 130.29 121.69 130.29C120.56 130.29 120 130.72 120 131.58C120 131.97 120.13 132.28 120.39 132.5C120.65 132.72 121.18 132.99 122 133.31C123.47 133.89 124.52 134.53 125.17 135.21C125.82 135.89 126.14 136.71 126.14 137.67C126.14 139.02 125.64 140.06 124.65 140.8C123.84 141.4 122.82 141.7 121.61 141.7C120.18 141.7 118.66 141.17 117.05 140.12L118.23 138.43C119.02 138.97 120.03 139.24 121.27 139.24C122.67 139.24 123.37 138.66 123.37 137.51C123.37 136.76 122.62 136.12 121.11 135.59C118.68 134.76 117.46 133.42 117.46 131.59C117.46 130.48 117.87 129.6 118.68 128.94C119.44 128.32 120.45 128 121.72 128C123.14 128 124.49 128.44 125.74 129.33Z" fill="#5488C4"/>
</g>
<defs>
<clipPath id="clip0_199_10">
<rect width="137" height="142" fill="white"/>
</clipPath>
</defs>
</svg>
