<svg xmlns="http://www.w3.org/2000/svg" version="1.1" xmlns:xlink="http://www.w3.org/1999/xlink" width="512" height="512" x="0" y="0" viewBox="0 0 64 64" style="enable-background:new 0 0 512 512" xml:space="preserve" fill-rule="evenodd" class=""><g><path d="M61.25 18c0-8.417-6.833-15.25-15.25-15.25H18C9.583 2.75 2.75 9.583 2.75 18v28c0 8.417 6.833 15.25 15.25 15.25h28c8.417 0 15.25-6.833 15.25-15.25zm-2.5 0v28c0 7.037-5.713 12.75-12.75 12.75H18c-7.037 0-12.75-5.713-12.75-12.75V18c0-7.037 5.713-12.75 12.75-12.75h28c7.037 0 12.75 5.713 12.75 12.75z" fill="#00668c" opacity="1" data-original="#000000" class=""></path><path d="M31.955 17.494c-7.999 0-14.493 6.494-14.493 14.493S23.956 46.48 31.955 46.48s14.493-6.494 14.493-14.493-6.494-14.493-14.493-14.493zm0 2.5c6.62 0 11.993 5.374 11.993 11.993S38.574 43.98 31.955 43.98s-11.993-5.374-11.993-11.993 5.374-11.993 11.993-11.993zM48.949 10.746c-2.34 0-4.239 1.9-4.239 4.239s1.9 4.239 4.239 4.239 4.239-1.9 4.239-4.239-1.9-4.239-4.239-4.239zm0 2.494a1.746 1.746 0 0 1 0 3.49 1.746 1.746 0 0 1 0-3.49z" fill="#00668c" opacity="1" data-original="#000000" class=""></path></g></svg>