<svg width="455" height="394" viewBox="0 0 455 394" fill="none" xmlns="http://www.w3.org/2000/svg">
<g clip-path="url(#clip0_15_4)">
<path d="M11.49 333.77C11.6833 333.77 11.79 333.677 11.81 333.49C11.8133 333.439 11.8345 333.39 11.87 333.353C11.9055 333.315 11.9529 333.292 12.0041 333.286C12.0553 333.28 12.1069 333.292 12.15 333.32C12.1931 333.348 12.225 333.391 12.24 333.44L12.66 334.53C12.8066 334.903 13.08 335.09 13.48 335.09H56.95C57.1366 335.09 57.23 334.997 57.23 334.81V65.54C57.23 65.2067 57.0766 65.0967 56.77 65.21C54.63 65.9967 53.31 66.5367 52.81 66.83C52.11 67.25 51.76 67.05 51.76 66.23V60.63C51.76 59.8967 52.1033 59.3967 52.79 59.13L204.56 0.0499998C205 -0.123334 205.22 0.0266634 205.22 0.499997V7.28C205.22 7.76 204.993 8.08667 204.54 8.26L199.14 10.37C199.011 10.4172 198.899 10.503 198.821 10.6157C198.742 10.7284 198.7 10.8625 198.7 11V65.71C198.7 65.9458 198.771 66.1755 198.903 66.3685C199.036 66.5615 199.223 66.7085 199.44 66.79L405.39 147C405.583 147.073 405.68 147.213 405.68 147.42V156.59C405.68 156.817 405.573 156.89 405.36 156.81L386.38 149.41C386.328 149.391 386.273 149.384 386.218 149.391C386.163 149.397 386.111 149.418 386.066 149.449C386.021 149.48 385.984 149.523 385.958 149.571C385.933 149.62 385.92 149.675 385.92 149.73V208.52C385.92 208.599 385.935 208.677 385.966 208.75C385.996 208.822 386.04 208.889 386.096 208.944C386.151 209 386.218 209.044 386.29 209.074C386.363 209.104 386.441 209.12 386.52 209.12H409.67C410.037 209.12 410.22 209.303 410.22 209.67V240.75C410.22 241.063 410.063 241.22 409.75 241.22H399.47C399.097 241.22 398.91 241.41 398.91 241.79V334.88C398.91 334.938 398.933 334.994 398.974 335.036C399.016 335.077 399.072 335.1 399.13 335.1H446.24C446.467 335.1 446.683 335.053 446.89 334.96L449 334C449.046 333.98 449.097 333.972 449.147 333.978C449.197 333.984 449.244 334.003 449.284 334.034C449.324 334.065 449.355 334.106 449.374 334.152C449.392 334.199 449.398 334.25 449.39 334.3C449.377 334.387 449.373 334.517 449.38 334.69C449.393 334.977 449.543 335.12 449.83 335.12H454.21C454.923 335.12 455.317 335.477 455.39 336.19C455.403 336.297 455.407 336.41 455.4 336.53C455.373 337.083 455.083 337.36 454.53 337.36H1.48998C0.896645 337.36 0.566645 337.063 0.499979 336.47C0.479979 336.31 0.483312 336.177 0.509979 336.07C0.669979 335.457 0.926646 335.15 1.27998 335.15L9.54998 335.08C9.82998 335.073 10.02 334.94 10.12 334.68L10.73 333.12C10.7966 332.94 10.9033 332.913 11.05 333.04C11.15 333.133 11.19 333.253 11.17 333.4C11.1643 333.447 11.1683 333.494 11.1818 333.539C11.1954 333.584 11.218 333.625 11.2483 333.66C11.2786 333.695 11.3159 333.723 11.3575 333.742C11.3992 333.761 11.4444 333.771 11.49 333.77ZM202.69 6.25C202.766 6.22077 202.831 6.16839 202.876 6.10022C202.921 6.03205 202.943 5.95153 202.94 5.87L202.85 3.91C202.847 3.8475 202.829 3.78668 202.797 3.73269C202.765 3.67869 202.721 3.6331 202.668 3.59976C202.615 3.56642 202.555 3.54631 202.493 3.54113C202.43 3.53595 202.368 3.54585 202.31 3.57L54.44 60.87C54.3638 60.8992 54.2987 60.9516 54.2538 61.0198C54.209 61.0879 54.1867 61.1685 54.19 61.25L54.26 63.22C54.2622 63.2821 54.2792 63.3428 54.3096 63.397C54.34 63.4511 54.383 63.4973 54.4348 63.5315C54.4867 63.5658 54.546 63.5871 54.6077 63.5938C54.6695 63.6005 54.732 63.5923 54.79 63.57L202.69 6.25ZM162.53 39.95C162.53 39.8759 162.512 39.803 162.477 39.7374C162.443 39.6718 162.393 39.6155 162.332 39.5733C162.271 39.5311 162.201 39.5042 162.128 39.4949C162.054 39.4856 161.979 39.4942 161.91 39.52L108.05 59.57C107.962 59.6026 107.886 59.6612 107.833 59.7381C107.779 59.8149 107.75 59.9063 107.75 60L107.77 169.03C107.77 169.152 107.818 169.269 107.905 169.355C107.991 169.442 108.108 169.49 108.23 169.49L162.08 169.47C162.202 169.47 162.319 169.422 162.405 169.335C162.492 169.249 162.54 169.132 162.54 169.01L162.53 39.95ZM403.55 149.09C403.551 149.017 403.529 148.945 403.488 148.884C403.447 148.823 403.388 148.776 403.32 148.75L191.18 66.13C191.125 66.1087 191.066 66.1013 191.007 66.1082C190.949 66.1152 190.893 66.1364 190.845 66.1699C190.796 66.2035 190.757 66.2484 190.73 66.3007C190.703 66.353 190.689 66.4111 190.69 66.47L190.7 71.2C190.699 71.2734 190.721 71.3452 190.762 71.406C190.803 71.4668 190.862 71.5135 190.93 71.54L403.07 153.36C403.125 153.381 403.184 153.389 403.243 153.382C403.301 153.375 403.357 153.354 403.405 153.32C403.454 153.287 403.493 153.242 403.52 153.189C403.547 153.137 403.561 153.079 403.56 153.02L403.55 149.09ZM199.12 77.23C199.071 77.2102 199.018 77.2028 198.966 77.2085C198.913 77.2141 198.863 77.2326 198.82 77.2623C198.776 77.2919 198.741 77.3319 198.716 77.3786C198.692 77.4253 198.679 77.4773 198.68 77.53L198.69 208.77C198.69 208.855 198.724 208.936 198.784 208.996C198.844 209.056 198.925 209.09 199.01 209.09L383.21 209.11C383.295 209.11 383.376 209.076 383.436 209.016C383.496 208.956 383.53 208.875 383.53 208.79L383.52 148.58C383.521 148.516 383.502 148.453 383.466 148.399C383.431 148.346 383.38 148.304 383.32 148.28L199.12 77.23ZM159.28 188.99C159.28 188.852 159.225 188.72 159.128 188.622C159.03 188.525 158.898 188.47 158.76 188.47H108.28C108.212 188.47 108.144 188.483 108.081 188.51C108.018 188.536 107.961 188.574 107.912 188.622C107.864 188.671 107.826 188.728 107.8 188.791C107.773 188.854 107.76 188.922 107.76 188.99V299.97C107.76 300.038 107.773 300.106 107.8 300.169C107.826 300.232 107.864 300.289 107.912 300.338C107.961 300.386 108.018 300.424 108.081 300.45C108.144 300.477 108.212 300.49 108.28 300.49H158.76C158.898 300.49 159.03 300.435 159.128 300.338C159.225 300.24 159.28 300.108 159.28 299.97V188.99ZM407.79 211.63C407.79 211.521 407.747 211.417 407.67 211.34C407.593 211.263 407.489 211.22 407.38 211.22H191.14C191.031 211.22 190.927 211.263 190.85 211.34C190.773 211.417 190.73 211.521 190.73 211.63V238.69C190.73 238.799 190.773 238.903 190.85 238.98C190.927 239.057 191.031 239.1 191.14 239.1H407.38C407.489 239.1 407.593 239.057 407.67 238.98C407.747 238.903 407.79 238.799 407.79 238.69V211.63ZM383.91 252.43V334.62C383.91 334.742 383.958 334.859 384.045 334.945C384.131 335.032 384.248 335.08 384.37 335.08H395.95C396.317 335.08 396.5 334.9 396.5 334.54V241.5C396.5 241.434 396.474 241.37 396.427 241.323C396.38 241.276 396.316 241.25 396.25 241.25H190.97C190.935 241.25 190.899 241.257 190.867 241.271C190.834 241.284 190.804 241.304 190.779 241.329C190.754 241.354 190.734 241.384 190.721 241.417C190.707 241.449 190.7 241.485 190.7 241.52V334.53C190.7 334.684 190.76 334.831 190.867 334.94C190.974 335.049 191.119 335.11 191.27 335.11H340.83C341.123 335.11 341.27 334.963 341.27 334.67V253.02C341.27 252.614 341.431 252.225 341.718 251.938C342.005 251.651 342.394 251.49 342.8 251.49H382.97C383.219 251.49 383.458 251.589 383.635 251.765C383.811 251.942 383.91 252.181 383.91 252.43ZM363.11 254.15C363.11 254.057 363.073 253.968 363.007 253.903C362.942 253.837 362.853 253.8 362.76 253.8H344.08C343.987 253.8 343.898 253.837 343.832 253.903C343.767 253.968 343.73 254.057 343.73 254.15V334.67C343.73 334.763 343.767 334.852 343.832 334.917C343.898 334.983 343.987 335.02 344.08 335.02H362.76C362.853 335.02 362.942 334.983 363.007 334.917C363.073 334.852 363.11 334.763 363.11 334.67V254.15ZM373.28 254.18C373.28 254.085 373.242 253.993 373.175 253.925C373.107 253.858 373.015 253.82 372.92 253.82H365.86C365.764 253.82 365.673 253.858 365.605 253.925C365.538 253.993 365.5 254.085 365.5 254.18V334.64C365.5 334.735 365.538 334.827 365.605 334.895C365.673 334.962 365.764 335 365.86 335H372.92C373.015 335 373.107 334.962 373.175 334.895C373.242 334.827 373.28 334.735 373.28 334.64V254.18ZM381.55 254.36C381.55 254.29 381.536 254.221 381.51 254.157C381.483 254.093 381.444 254.034 381.395 253.985C381.346 253.936 381.287 253.897 381.223 253.87C381.158 253.844 381.09 253.83 381.02 253.83H376.02C375.95 253.83 375.881 253.844 375.817 253.87C375.753 253.897 375.694 253.936 375.645 253.985C375.596 254.034 375.557 254.093 375.53 254.157C375.504 254.221 375.49 254.29 375.49 254.36V334.46C375.49 334.601 375.546 334.735 375.645 334.835C375.745 334.934 375.879 334.99 376.02 334.99H381.02C381.161 334.99 381.295 334.934 381.395 334.835C381.494 334.735 381.55 334.601 381.55 334.46V254.36Z" fill="#83735A"/>
<path d="M208.55 88.79L375.3 150.81C375.361 150.833 375.415 150.873 375.452 150.927C375.49 150.981 375.51 151.045 375.51 151.11L375.54 202.48C375.54 202.565 375.506 202.646 375.446 202.706C375.386 202.766 375.305 202.8 375.22 202.8L208.44 203.28C208.355 203.28 208.274 203.246 208.214 203.186C208.154 203.126 208.12 203.045 208.12 202.96V89.09C208.12 89.0385 208.133 88.9879 208.156 88.9423C208.18 88.8967 208.215 88.8575 208.257 88.8281C208.299 88.7986 208.348 88.7798 208.399 88.7732C208.45 88.7665 208.502 88.7723 208.55 88.79ZM245.3 105.19C245.3 105.125 245.28 105.061 245.242 105.007C245.205 104.953 245.151 104.913 245.09 104.89L210.88 92.15C210.832 92.1323 210.78 92.1265 210.729 92.1332C210.678 92.1398 210.629 92.1586 210.587 92.1881C210.545 92.2175 210.51 92.2567 210.486 92.3023C210.463 92.3479 210.45 92.3985 210.45 92.45L210.47 150.13C210.47 150.215 210.504 150.296 210.564 150.356C210.624 150.416 210.705 150.45 210.79 150.45L244.91 150.5C244.995 150.5 245.076 150.466 245.136 150.406C245.196 150.346 245.23 150.265 245.23 150.18L245.3 105.19ZM248.2 106.05C248.142 106.029 248.08 106.022 248.02 106.03C247.959 106.039 247.901 106.061 247.851 106.097C247.801 106.132 247.76 106.179 247.732 106.234C247.704 106.288 247.69 106.349 247.69 106.41L247.75 150.16C247.75 150.261 247.79 150.357 247.861 150.429C247.933 150.5 248.029 150.54 248.13 150.54L290.16 150.47C290.261 150.47 290.357 150.43 290.429 150.359C290.5 150.287 290.54 150.191 290.54 150.09L290.55 122.08C290.549 122.003 290.524 121.929 290.479 121.866C290.435 121.804 290.372 121.756 290.3 121.73L248.2 106.05ZM293.39 122.86C293.335 122.839 293.275 122.832 293.216 122.839C293.157 122.846 293.101 122.867 293.052 122.9C293.003 122.934 292.963 122.978 292.934 123.03C292.906 123.083 292.891 123.141 292.89 123.2V150.12C292.89 150.169 292.9 150.217 292.918 150.262C292.937 150.306 292.964 150.347 292.998 150.382C293.033 150.416 293.074 150.443 293.118 150.462C293.163 150.48 293.211 150.49 293.26 150.49L331.16 150.52C331.258 150.52 331.352 150.481 331.422 150.412C331.491 150.342 331.53 150.248 331.53 150.15L331.54 137.33C331.541 137.254 331.518 137.18 331.475 137.117C331.432 137.055 331.371 137.007 331.3 136.98L293.39 122.86ZM334.37 138.12C334.318 138.101 334.263 138.094 334.208 138.101C334.153 138.108 334.101 138.128 334.056 138.159C334.011 138.191 333.974 138.233 333.948 138.281C333.923 138.33 333.91 138.385 333.91 138.44L333.93 150.16C333.93 150.25 333.966 150.337 334.03 150.4C334.093 150.464 334.18 150.5 334.27 150.5L366.03 150.58C366.106 150.576 366.179 150.546 366.236 150.496C366.293 150.445 366.332 150.377 366.346 150.302C366.36 150.227 366.348 150.15 366.312 150.082C366.277 150.015 366.22 149.961 366.15 149.93L334.37 138.12ZM245.26 153.32C245.26 153.206 245.215 153.097 245.134 153.016C245.053 152.935 244.944 152.89 244.83 152.89H210.87C210.756 152.89 210.647 152.935 210.566 153.016C210.485 153.097 210.44 153.206 210.44 153.32V200.34C210.44 200.454 210.485 200.563 210.566 200.644C210.647 200.725 210.756 200.77 210.87 200.77H244.83C244.944 200.77 245.053 200.725 245.134 200.644C245.215 200.563 245.26 200.454 245.26 200.34V153.32ZM290.55 153.31C290.55 153.255 290.539 153.2 290.518 153.149C290.497 153.098 290.466 153.052 290.427 153.013C290.388 152.974 290.342 152.943 290.291 152.922C290.24 152.901 290.185 152.89 290.13 152.89H248.13C248.019 152.89 247.912 152.934 247.833 153.013C247.754 153.092 247.71 153.199 247.71 153.31V200.37C247.71 200.481 247.754 200.588 247.833 200.667C247.912 200.746 248.019 200.79 248.13 200.79H290.13C290.185 200.79 290.24 200.779 290.291 200.758C290.342 200.737 290.388 200.706 290.427 200.667C290.466 200.628 290.497 200.582 290.518 200.531C290.539 200.48 290.55 200.425 290.55 200.37V153.31ZM331.479 153.156C331.479 153.12 331.471 153.083 331.457 153.049C331.443 153.015 331.422 152.984 331.396 152.958C331.37 152.932 331.339 152.912 331.305 152.898C331.271 152.884 331.235 152.877 331.198 152.877L293.118 152.943C293.082 152.943 293.045 152.951 293.011 152.965C292.977 152.979 292.947 153 292.921 153.026C292.895 153.052 292.874 153.083 292.86 153.117C292.846 153.151 292.839 153.187 292.839 153.224L292.921 200.384C292.921 200.42 292.929 200.457 292.943 200.491C292.957 200.525 292.978 200.556 293.004 200.582C293.03 200.607 293.061 200.628 293.095 200.642C293.129 200.656 293.165 200.663 293.202 200.663L331.282 200.597C331.318 200.597 331.355 200.589 331.389 200.575C331.423 200.561 331.453 200.54 331.479 200.514C331.505 200.488 331.526 200.457 331.54 200.423C331.554 200.389 331.561 200.353 331.561 200.316L331.479 153.156ZM373.26 153.19C373.26 153.118 373.232 153.05 373.181 152.999C373.13 152.948 373.062 152.92 372.99 152.92H334.19C334.118 152.92 334.05 152.948 333.999 152.999C333.948 153.05 333.92 153.118 333.92 153.19V200.29C333.92 200.362 333.948 200.43 333.999 200.481C334.05 200.532 334.118 200.56 334.19 200.56H372.99C373.062 200.56 373.13 200.532 373.181 200.481C373.232 200.43 373.26 200.362 373.26 200.29V153.19Z" fill="#83735A"/>
<path d="M150.384 92.0333L111.813 121.204C111.363 121.544 111.275 122.184 111.614 122.633L111.807 122.888C112.147 123.338 112.787 123.427 113.236 123.087L151.807 93.9156C152.257 93.5758 152.345 92.9361 152.006 92.4868L151.813 92.2315C151.473 91.7822 150.833 91.6935 150.384 92.0333Z" fill="#83735A"/>
<path d="M123.586 104.632L111.814 113.503C111.324 113.872 111.227 114.568 111.595 115.057L111.68 115.169C112.049 115.659 112.745 115.757 113.234 115.388L125.006 106.517C125.496 106.148 125.593 105.452 125.225 104.963L125.14 104.851C124.771 104.361 124.075 104.263 123.586 104.632Z" fill="#83735A"/>
<path d="M147.091 104.65L138.637 111.044C138.157 111.407 138.062 112.091 138.425 112.571L138.522 112.698C138.885 113.178 139.568 113.273 140.049 112.91L148.503 106.516C148.983 106.153 149.078 105.469 148.715 104.989L148.618 104.862C148.255 104.382 147.572 104.287 147.091 104.65Z" fill="#83735A"/>
<path d="M278.853 124.055L254 142.851C253.493 143.234 253.393 143.955 253.776 144.462L253.837 144.542C254.22 145.048 254.941 145.148 255.448 144.765L280.3 125.969C280.807 125.586 280.907 124.865 280.524 124.358L280.463 124.278C280.08 123.772 279.359 123.672 278.853 124.055Z" fill="#83735A"/>
<path d="M260.86 129.885L257.069 132.763C256.563 133.147 256.464 133.869 256.848 134.374L256.908 134.454C257.292 134.96 258.014 135.059 258.52 134.675L262.311 131.797C262.817 131.413 262.916 130.691 262.532 130.186L262.472 130.106C262.088 129.6 261.366 129.501 260.86 129.885Z" fill="#83735A"/>
<path d="M276.776 132.229L271.219 136.386C270.728 136.753 270.627 137.449 270.995 137.939L271.091 138.068C271.458 138.558 272.153 138.659 272.644 138.291L278.201 134.134C278.692 133.767 278.792 133.071 278.425 132.581L278.329 132.452C277.962 131.962 277.267 131.861 276.776 132.229Z" fill="#83735A"/>
<path d="M239.988 164.482L214.896 183.459C214.442 183.802 214.353 184.448 214.696 184.902L214.889 185.157C215.232 185.611 215.878 185.701 216.332 185.358L241.424 166.381C241.878 166.038 241.967 165.392 241.624 164.938L241.431 164.683C241.088 164.229 240.442 164.139 239.988 164.482Z" fill="#83735A"/>
<path d="M324.32 165.342L299.469 184.206C298.967 184.587 298.869 185.302 299.25 185.803L299.322 185.899C299.703 186.4 300.418 186.498 300.92 186.118L325.771 167.254C326.273 166.873 326.371 166.158 325.99 165.657L325.918 165.561C325.537 165.06 324.822 164.962 324.32 165.342Z" fill="#83735A"/>
<path d="M221.925 170.368L218.093 173.224C217.588 173.6 217.484 174.315 217.86 174.82L217.92 174.9C218.296 175.405 219.01 175.509 219.515 175.132L223.347 172.276C223.852 171.9 223.956 171.185 223.58 170.68L223.52 170.6C223.144 170.095 222.43 169.991 221.925 170.368Z" fill="#83735A"/>
<path d="M306.328 171.17L302.625 174.032C302.118 174.423 302.024 175.152 302.416 175.659L302.465 175.722C302.857 176.229 303.585 176.322 304.092 175.93L307.795 173.068C308.302 172.677 308.396 171.948 308.004 171.441L307.955 171.378C307.563 170.871 306.835 170.778 306.328 171.17Z" fill="#83735A"/>
<path d="M237.827 172.667L232.301 176.832C231.793 177.214 231.692 177.935 232.074 178.442L232.122 178.506C232.505 179.014 233.226 179.115 233.733 178.733L239.259 174.568C239.767 174.186 239.868 173.465 239.486 172.958L239.438 172.894C239.055 172.386 238.334 172.285 237.827 172.667Z" fill="#83735A"/>
<path d="M322.27 173.468L316.75 177.642C316.262 178.012 316.165 178.708 316.535 179.197L316.655 179.356C317.025 179.845 317.721 179.942 318.21 179.572L323.73 175.398C324.218 175.028 324.315 174.332 323.945 173.843L323.825 173.684C323.455 173.195 322.759 173.098 322.27 173.468Z" fill="#83735A"/>
<path d="M142.789 230.359L131.112 239.19C130.627 239.557 130.532 240.247 130.898 240.731L130.971 240.827C131.337 241.311 132.027 241.407 132.511 241.041L144.188 232.21C144.673 231.843 144.768 231.153 144.402 230.669L144.329 230.573C143.963 230.089 143.273 229.993 142.789 230.359Z" fill="#83735A"/>
<path d="M151.939 234.607L113.466 263.809C112.987 264.173 112.893 264.857 113.257 265.336L113.354 265.464C113.718 265.943 114.402 266.037 114.881 265.673L153.354 236.471C153.833 236.107 153.927 235.423 153.563 234.944L153.466 234.816C153.102 234.337 152.418 234.243 151.939 234.607Z" fill="#83735A"/>
<path d="M124.273 243.575L118.443 247.968C117.967 248.327 117.871 249.004 118.23 249.481L118.315 249.592C118.674 250.069 119.351 250.164 119.827 249.805L125.657 245.412C126.133 245.053 126.229 244.376 125.87 243.899L125.785 243.788C125.426 243.311 124.749 243.216 124.273 243.575Z" fill="#83735A"/>
<path d="M148.733 247.206L140.295 253.588C139.793 253.968 139.694 254.683 140.073 255.185L140.11 255.233C140.489 255.735 141.204 255.834 141.707 255.454L150.145 249.072C150.647 248.692 150.746 247.977 150.367 247.475L150.33 247.427C149.951 246.925 149.236 246.826 148.733 247.206Z" fill="#83735A"/>
<path d="M230.5 292.01C230.5 292.395 230.347 292.763 230.075 293.035C229.803 293.307 229.435 293.46 229.05 293.46H211.99C211.605 293.46 211.237 293.307 210.965 293.035C210.693 292.763 210.54 292.395 210.54 292.01V251.97C210.54 251.78 210.577 251.591 210.65 251.415C210.723 251.239 210.83 251.079 210.965 250.945C211.099 250.81 211.259 250.703 211.435 250.63C211.611 250.558 211.8 250.52 211.99 250.52H229.05C229.24 250.52 229.429 250.558 229.605 250.63C229.781 250.703 229.941 250.81 230.075 250.945C230.21 251.079 230.317 251.239 230.39 251.415C230.462 251.591 230.5 251.78 230.5 251.97V292.01ZM223.263 253.291C223.263 253.24 223.252 253.189 223.233 253.142C223.213 253.094 223.184 253.052 223.148 253.015C223.112 252.979 223.069 252.951 223.021 252.931C222.974 252.912 222.923 252.902 222.872 252.902L213.292 252.918C213.189 252.919 213.089 252.96 213.016 253.033C212.943 253.106 212.903 253.206 212.903 253.309L212.917 261.729C212.917 261.78 212.928 261.831 212.947 261.878C212.967 261.925 212.996 261.968 213.032 262.005C213.068 262.041 213.111 262.069 213.159 262.089C213.206 262.108 213.257 262.118 213.308 262.118L222.888 262.102C222.991 262.101 223.091 262.06 223.164 261.987C223.237 261.914 223.277 261.814 223.277 261.711L223.263 253.291ZM223.23 264.88C223.23 264.766 223.185 264.657 223.104 264.576C223.023 264.495 222.914 264.45 222.8 264.45H213.32C213.206 264.45 213.097 264.495 213.016 264.576C212.935 264.657 212.89 264.766 212.89 264.88V290.66C212.89 290.774 212.935 290.883 213.016 290.964C213.097 291.045 213.206 291.09 213.32 291.09H222.8C222.914 291.09 223.023 291.045 223.104 290.964C223.185 290.883 223.23 290.774 223.23 290.66V264.88Z" fill="#83735A"/>
<path d="M262.51 292.31C262.51 292.618 262.388 292.913 262.17 293.13C261.953 293.348 261.658 293.47 261.35 293.47H243.97C243.818 293.47 243.667 293.44 243.526 293.382C243.385 293.323 243.257 293.238 243.15 293.13C243.042 293.023 242.957 292.895 242.898 292.754C242.84 292.613 242.81 292.462 242.81 292.31V251.67C242.81 251.518 242.84 251.367 242.898 251.226C242.957 251.085 243.042 250.957 243.15 250.85C243.257 250.742 243.385 250.657 243.526 250.598C243.667 250.54 243.818 250.51 243.97 250.51H261.35C261.502 250.51 261.653 250.54 261.794 250.598C261.935 250.657 262.063 250.742 262.17 250.85C262.278 250.957 262.363 251.085 262.422 251.226C262.48 251.367 262.51 251.518 262.51 251.67V292.31ZM255.243 253.231C255.243 253.189 255.234 253.148 255.218 253.109C255.202 253.07 255.178 253.035 255.148 253.005C255.119 252.975 255.083 252.952 255.044 252.936C255.006 252.92 254.964 252.912 254.922 252.912L245.522 252.928C245.48 252.928 245.438 252.937 245.4 252.953C245.361 252.969 245.326 252.993 245.296 253.022C245.266 253.052 245.243 253.087 245.227 253.126C245.211 253.165 245.203 253.207 245.203 253.249L245.217 261.769C245.217 261.811 245.226 261.852 245.242 261.891C245.258 261.93 245.282 261.965 245.312 261.995C245.341 262.025 245.377 262.048 245.415 262.064C245.454 262.08 245.496 262.088 245.538 262.088L254.938 262.072C254.98 262.072 255.022 262.063 255.06 262.047C255.099 262.031 255.134 262.007 255.164 261.978C255.194 261.948 255.217 261.913 255.233 261.874C255.249 261.835 255.257 261.793 255.257 261.751L255.243 253.231ZM255.23 264.95C255.23 264.82 255.178 264.695 255.086 264.604C254.995 264.512 254.87 264.46 254.74 264.46H245.7C245.636 264.46 245.572 264.473 245.512 264.497C245.453 264.522 245.399 264.558 245.354 264.604C245.308 264.649 245.272 264.703 245.247 264.762C245.223 264.822 245.21 264.886 245.21 264.95V290.57C245.21 290.634 245.223 290.698 245.247 290.758C245.272 290.817 245.308 290.871 245.354 290.916C245.399 290.962 245.453 290.998 245.512 291.023C245.572 291.047 245.636 291.06 245.7 291.06H254.74C254.804 291.06 254.868 291.047 254.928 291.023C254.987 290.998 255.041 290.962 255.086 290.916C255.132 290.871 255.168 290.817 255.193 290.758C255.217 290.698 255.23 290.634 255.23 290.57V264.95Z" fill="#83735A"/>
<path d="M291.79 292.22C291.79 292.552 291.658 292.869 291.424 293.104C291.189 293.338 290.872 293.47 290.54 293.47H273.34C273.008 293.47 272.691 293.338 272.456 293.104C272.222 292.869 272.09 292.552 272.09 292.22V251.74C272.09 251.408 272.222 251.091 272.456 250.856C272.691 250.622 273.008 250.49 273.34 250.49H290.54C290.872 250.49 291.189 250.622 291.424 250.856C291.658 251.091 291.79 251.408 291.79 251.74V292.22ZM284.547 253.359C284.547 253.245 284.502 253.135 284.422 253.055C284.341 252.974 284.232 252.928 284.118 252.928L274.898 252.912C274.784 252.912 274.675 252.957 274.594 253.037C274.513 253.118 274.467 253.227 274.467 253.341L274.453 261.641C274.453 261.755 274.498 261.865 274.578 261.945C274.659 262.026 274.768 262.072 274.882 262.072L284.102 262.088C284.216 262.088 284.325 262.043 284.406 261.963C284.487 261.882 284.533 261.773 284.533 261.659L284.547 253.359ZM284.49 265C284.49 264.865 284.436 264.735 284.341 264.639C284.245 264.544 284.115 264.49 283.98 264.49H274.96C274.825 264.49 274.695 264.544 274.599 264.639C274.504 264.735 274.45 264.865 274.45 265V290.56C274.45 290.695 274.504 290.825 274.599 290.921C274.695 291.016 274.825 291.07 274.96 291.07H283.98C284.115 291.07 284.245 291.016 284.341 290.921C284.436 290.825 284.49 290.695 284.49 290.56V265Z" fill="#83735A"/>
<path d="M322.23 292.24C322.23 292.566 322.1 292.879 321.87 293.11C321.639 293.34 321.326 293.47 321 293.47H303.76C303.434 293.47 303.121 293.34 302.89 293.11C302.66 292.879 302.53 292.566 302.53 292.24V251.72C302.53 251.394 302.66 251.081 302.89 250.85C303.121 250.62 303.434 250.49 303.76 250.49H321C321.326 250.49 321.639 250.62 321.87 250.85C322.1 251.081 322.23 251.394 322.23 251.72V292.24ZM315.11 253.3C315.11 253.197 315.069 253.097 314.996 253.024C314.923 252.951 314.823 252.91 314.72 252.91H305.3C305.197 252.91 305.097 252.951 305.024 253.024C304.951 253.097 304.91 253.197 304.91 253.3V261.72C304.91 261.823 304.951 261.923 305.024 261.996C305.097 262.069 305.197 262.11 305.3 262.11H314.72C314.823 262.11 314.923 262.069 314.996 261.996C315.069 261.923 315.11 261.823 315.11 261.72V253.3ZM315.113 264.859C315.113 264.808 315.103 264.757 315.083 264.71C315.064 264.662 315.035 264.619 314.999 264.583C314.963 264.547 314.92 264.518 314.872 264.498C314.825 264.478 314.774 264.468 314.723 264.468L305.323 264.452C305.272 264.452 305.221 264.462 305.174 264.481C305.127 264.501 305.084 264.529 305.047 264.566C305.011 264.602 304.982 264.645 304.963 264.692C304.943 264.739 304.933 264.79 304.933 264.841L304.887 290.701C304.887 290.752 304.897 290.803 304.917 290.85C304.936 290.898 304.965 290.941 305.001 290.977C305.037 291.013 305.08 291.042 305.128 291.062C305.175 291.082 305.226 291.092 305.277 291.092L314.677 291.108C314.728 291.108 314.779 291.098 314.826 291.079C314.873 291.059 314.916 291.031 314.953 290.994C314.989 290.958 315.018 290.915 315.037 290.868C315.057 290.821 315.067 290.77 315.067 290.719L315.113 264.859Z" fill="#83735A"/>
<path d="M312.26 393.958C310.354 393.935 308.474 393.382 306.727 392.332C304.979 391.281 303.398 389.753 302.074 387.835C300.75 385.917 299.709 383.646 299.01 381.153C298.311 378.66 297.968 375.992 298.001 373.303C298.067 367.871 299.66 362.681 302.428 358.874C305.195 355.067 308.912 352.954 312.76 353.002C314.666 353.025 316.546 353.578 318.293 354.628C320.041 355.679 321.622 357.207 322.946 359.125C324.27 361.043 325.311 363.314 326.01 365.807C326.709 368.3 327.052 370.968 327.019 373.657C326.953 379.089 325.36 384.279 322.592 388.086C319.825 391.893 316.108 394.006 312.26 393.958ZM312.993 393.294C313.971 393.27 314.927 392.735 315.806 391.72C316.686 390.705 317.471 389.229 318.118 387.377C318.765 385.525 319.26 383.332 319.576 380.925C319.891 378.518 320.021 375.943 319.958 373.348C319.894 370.753 319.639 368.187 319.206 365.798C318.773 363.41 318.171 361.244 317.435 359.426C316.698 357.608 315.842 356.172 314.914 355.201C313.986 354.23 313.005 353.742 312.027 353.766C311.049 353.79 310.093 354.325 309.214 355.34C308.334 356.355 307.549 357.831 306.902 359.683C306.255 361.535 305.76 363.728 305.444 366.135C305.129 368.542 304.999 371.117 305.062 373.712C305.126 376.307 305.381 378.873 305.814 381.262C306.247 383.65 306.849 385.816 307.585 387.634C308.322 389.452 309.178 390.888 310.106 391.859C311.034 392.83 312.015 393.318 312.993 393.294Z" fill="#B4A187"/>
<path d="M59.4 392.03C63.0134 392.363 66.0134 391.98 68.4 390.88C70.32 390 71.9567 388.247 73.31 385.62C73.6633 384.933 73.84 384.977 73.84 385.75V392.32C73.84 392.68 73.66 392.86 73.3 392.86H52.63C52.3033 392.86 52.14 392.693 52.14 392.36V354.38C52.14 354.322 52.1632 354.266 52.2045 354.224C52.2457 354.183 52.3017 354.16 52.36 354.16H58.65C58.7084 354.16 58.7643 354.182 58.8056 354.221C58.8468 354.261 58.87 354.314 58.87 354.37V391.44C58.87 391.8 59.0467 391.997 59.4 392.03Z" fill="#B4A187"/>
<path d="M101.39 392.21C106.36 393.17 109.68 390.12 110.56 385.33C110.88 383.55 111.19 382.34 111.19 381.06C111.25 372.127 111.26 363.253 111.22 354.44C111.213 354.233 111.313 354.13 111.52 354.13H111.79C112.03 354.13 112.15 354.25 112.15 354.49C112.183 363.723 112.177 372.913 112.13 382.06C112.123 383.047 111.74 384.793 110.98 387.3C108.82 394.44 99.41 395.19 94.09 392.16C91.1167 390.473 89.5133 387.497 89.28 383.23C89.1 379.997 89.06 370.417 89.16 354.49C89.16 354.263 89.2733 354.15 89.5 354.15H95.52C95.76 354.15 95.8767 354.27 95.87 354.51C95.8167 365.13 95.83 374.123 95.91 381.49C95.96 386.02 96.6 391.28 101.39 392.21Z" fill="#B4A187"/>
<path d="M183.23 369.84C186.243 371.54 187.933 372.6 188.3 373.02C193.1 378.66 194.64 385.61 196.25 392.58C196.297 392.78 196.217 392.88 196.01 392.88H189.04C188.968 392.88 188.898 392.854 188.845 392.806C188.791 392.758 188.757 392.692 188.75 392.62C188.17 387.28 187.41 382.617 186.47 378.63C185.45 374.33 183.44 370 178.39 369.78C178.326 369.776 178.262 369.785 178.201 369.808C178.141 369.83 178.085 369.865 178.038 369.91C177.991 369.954 177.954 370.009 177.929 370.069C177.903 370.129 177.89 370.194 177.89 370.26V392.66C177.89 392.721 177.865 392.779 177.82 392.823C177.775 392.866 177.714 392.89 177.65 392.89H171.46C171.24 392.89 171.13 392.783 171.13 392.57V354.7C171.13 354.353 171.307 354.177 171.66 354.17C174.507 354.123 177.947 354.13 181.98 354.19C186.27 354.26 191.37 355.14 192.9 359.66C194.33 363.93 190.78 367.41 186.77 368.54C186.677 368.567 185.513 368.867 183.28 369.44C182.94 369.527 182.923 369.66 183.23 369.84ZM177.82 355.27L177.9 368.69C177.9 368.823 177.953 368.95 178.046 369.044C178.14 369.137 178.267 369.19 178.4 369.19L180.34 369.18C182.152 369.169 183.886 368.447 185.161 367.172C186.436 365.897 187.148 364.174 187.14 362.38V361.5C187.136 360.61 186.955 359.73 186.607 358.909C186.259 358.089 185.751 357.344 185.112 356.718C184.473 356.092 183.716 355.597 182.883 355.261C182.05 354.925 181.159 354.755 180.26 354.76L178.32 354.77C178.187 354.77 178.06 354.823 177.966 354.916C177.873 355.01 177.82 355.137 177.82 355.27Z" fill="#B4A187"/>
<path d="M220.87 372.33V391.46C220.87 391.773 221.027 391.95 221.34 391.99C227.68 392.797 232.023 390.58 234.37 385.34C234.557 384.933 234.673 384.953 234.72 385.4C234.967 387.78 234.99 390.097 234.79 392.35C234.763 392.69 234.58 392.86 234.24 392.86H214.43C214.35 392.86 214.274 392.829 214.218 392.775C214.162 392.721 214.13 392.647 214.13 392.57V354.6C214.13 354.3 214.28 354.15 214.58 354.15H234.24C234.633 354.15 234.83 354.35 234.83 354.75V359.75C234.83 360.237 234.693 360.28 234.42 359.88C232.993 357.847 231.58 356.56 230.18 356.02C227.553 355.007 224.61 354.657 221.35 354.97C221.037 355.003 220.88 355.177 220.88 355.49V370.53C220.88 370.923 221.077 371.12 221.47 371.12H227.05C227.114 371.12 227.175 371.146 227.22 371.193C227.265 371.24 227.29 371.304 227.29 371.37V371.69C227.29 371.83 227.223 371.9 227.09 371.9H221.3C221.186 371.9 221.077 371.945 220.996 372.026C220.915 372.107 220.87 372.216 220.87 372.33Z" fill="#B4A187"/>
<path d="M267.39 373.3C268.097 374.993 269.76 378.29 272.38 383.19C272.907 384.19 273.17 384.123 273.17 382.99V354.37C273.17 354.288 273.204 354.209 273.264 354.151C273.324 354.093 273.405 354.06 273.49 354.06H279.63C279.704 354.06 279.775 354.089 279.828 354.142C279.881 354.195 279.91 354.266 279.91 354.34V392.39C279.91 392.683 279.763 392.83 279.47 392.83H276.52C276.207 392.83 275.977 392.693 275.83 392.42C272.017 385.287 268.977 379.007 266.71 373.58C266.003 371.887 264.34 368.59 261.72 363.69C261.193 362.69 260.93 362.757 260.93 363.89V392.51C260.93 392.592 260.896 392.671 260.836 392.729C260.776 392.787 260.695 392.82 260.61 392.82H254.47C254.433 392.82 254.397 392.813 254.363 392.799C254.329 392.785 254.298 392.764 254.272 392.738C254.246 392.712 254.225 392.681 254.211 392.647C254.197 392.613 254.19 392.577 254.19 392.54V354.49C254.19 354.197 254.337 354.05 254.63 354.05H257.58C257.893 354.05 258.123 354.187 258.27 354.46C262.083 361.593 265.123 367.873 267.39 373.3Z" fill="#B4A187"/>
<path d="M357.07 383.15C357.143 382.457 357.21 381.997 357.27 381.77C359.81 372.637 362.303 363.55 364.75 354.51C364.817 354.263 364.977 354.14 365.23 354.14H365.97C366.363 354.14 366.503 354.33 366.39 354.71L355.16 392.34C355.047 392.707 354.797 392.89 354.41 392.89H353.34C352.947 392.89 352.693 392.703 352.58 392.33L341.23 354.28C341.203 354.18 341.243 354.13 341.35 354.13H348.29C348.497 354.13 348.627 354.23 348.68 354.43C350.293 360.643 352.7 369.94 355.9 382.32C356.04 382.867 356.247 383.23 356.52 383.41C356.847 383.63 357.03 383.543 357.07 383.15Z" fill="#B4A187"/>
<path d="M390.89 372.47V391.49C390.89 391.81 391.053 391.99 391.38 392.03C397.62 392.803 401.99 390.537 404.49 385.23C404.743 384.69 404.87 384.717 404.87 385.31V392.26C404.87 392.667 404.667 392.87 404.26 392.87H384.65C384.303 392.87 384.13 392.693 384.13 392.34V354.38C384.13 354.319 384.153 354.261 384.194 354.217C384.236 354.174 384.292 354.15 384.35 354.15H404.29C404.663 354.15 404.85 354.337 404.85 354.71V359.74C404.85 360.12 404.723 360.167 404.47 359.88C402.517 357.6 400.933 356.227 399.72 355.76C397.88 355.053 395.113 354.783 391.42 354.95C391.06 354.963 390.88 355.147 390.88 355.5V370.49C390.88 370.93 391.1 371.15 391.54 371.15H396.24C396.29 371.15 396.339 371.17 396.374 371.206C396.41 371.241 396.43 371.29 396.43 371.34V371.66C396.43 371.793 396.363 371.86 396.23 371.86H391.5C391.093 371.86 390.89 372.063 390.89 372.47Z" fill="#B4A187"/>
<path d="M139 376.48L131.15 392.63C131.127 392.676 131.093 392.716 131.051 392.745C131.01 392.775 130.961 392.794 130.91 392.8L129.76 392.93C129.704 392.935 129.647 392.925 129.596 392.901C129.545 392.876 129.502 392.838 129.471 392.791C129.44 392.743 129.423 392.688 129.421 392.632C129.419 392.575 129.432 392.519 129.46 392.47L138.76 375.03C138.782 374.989 138.794 374.943 138.796 374.896C138.798 374.849 138.789 374.803 138.77 374.76L129.71 354.62C129.688 354.573 129.679 354.521 129.682 354.469C129.686 354.417 129.702 354.367 129.73 354.324C129.758 354.28 129.796 354.244 129.842 354.219C129.887 354.194 129.938 354.18 129.99 354.18L136.55 354.16C136.609 354.16 136.667 354.177 136.716 354.209C136.766 354.241 136.805 354.286 136.83 354.34L143.16 368.33C143.184 368.383 143.223 368.429 143.272 368.461C143.321 368.493 143.378 368.511 143.437 368.512C143.495 368.513 143.553 368.497 143.603 368.467C143.653 368.437 143.694 368.393 143.72 368.34L150.74 354.46C150.764 354.413 150.799 354.372 150.843 354.342C150.887 354.313 150.937 354.295 150.99 354.29L152.06 354.17C152.116 354.165 152.173 354.175 152.224 354.199C152.275 354.224 152.318 354.262 152.349 354.309C152.38 354.357 152.397 354.412 152.399 354.468C152.401 354.525 152.388 354.581 152.36 354.63L143.88 369.66C143.856 369.703 143.843 369.75 143.842 369.799C143.84 369.847 143.85 369.896 143.87 369.94L154.19 392.49C154.212 392.538 154.222 392.591 154.218 392.643C154.214 392.696 154.197 392.747 154.167 392.791C154.138 392.835 154.099 392.871 154.052 392.895C154.005 392.919 153.953 392.931 153.9 392.93L147.12 392.88C147.061 392.88 147.003 392.863 146.954 392.831C146.904 392.799 146.865 392.754 146.84 392.7L139.56 376.49C139.536 376.437 139.497 376.391 139.448 376.359C139.399 376.327 139.342 376.309 139.283 376.308C139.225 376.307 139.167 376.323 139.117 376.353C139.067 376.383 139.026 376.427 139 376.48Z" fill="#B4A187"/>
</g>
<defs>
<clipPath id="clip0_15_4">
<rect width="455" height="394" fill="white"/>
</clipPath>
</defs>
</svg>
